<?xml version="1.0" encoding="UTF-8"?>
<svg version="1.1" xmlns="http://www.w3.org/2000/svg" width="16" height="16">
<path d="M0 0 C5.28 0 10.56 0 16 0 C16 5.28 16 10.56 16 16 C10.72 16 5.44 16 0 16 C0 10.72 0 5.44 0 0 Z " fill="#EFAB2F" transform="translate(0,0)"/>
<path d="M0 0 C2.4375 0.1875 2.4375 0.1875 3.4375 1.1875 C3.50929964 2.70678038 3.52142007 4.22917482 3.5 5.75 C3.49097656 6.57628906 3.48195313 7.40257812 3.47265625 8.25390625 C3.46105469 8.89199219 3.44945312 9.53007812 3.4375 10.1875 C1.7875 10.8475 0.1375 11.5075 -1.5625 12.1875 C-1.5625 11.1975 -1.5625 10.2075 -1.5625 9.1875 C-2.5525 8.8575 -3.5425 8.5275 -4.5625 8.1875 C-4.6875 5.3125 -4.6875 5.3125 -4.5625 2.1875 C-2.5625 0.1875 -2.5625 0.1875 0 0 Z " fill="#0E0901" transform="translate(8.5625,1.8125)"/>
<path d="M0 0 C2.97 0 5.94 0 9 0 C9 5.28 9 10.56 9 16 C8.34 16 7.68 16 7 16 C5.21654761 12.55199204 3.93945328 9.96874747 4.1875 6 C4.33697904 2.88661695 4.33697904 2.88661695 2 1.125 C1.34 0.75375 0.68 0.3825 0 0 Z " fill="#F1AF38" transform="translate(7,0)"/>
<path d="M0 0 C2.97 0.33 5.94 0.66 9 1 C7.02 1.99 7.02 1.99 5 3 C3.62913085 4.29470975 2.28659163 5.62150897 1 7 C0.67 4.69 0.34 2.38 0 0 Z " fill="#E39710" transform="translate(1,0)"/>
<path d="M0 0 C0.33 0 0.66 0 1 0 C1 1.98 1 3.96 1 6 C-0.65 6 -2.3 6 -4 6 C-3.34 4.68 -2.68 3.36 -2 2 C-1.34 2 -0.68 2 0 2 C0 1.34 0 0.68 0 0 Z " fill="#F9A611" transform="translate(13,10)"/>
</svg>
